<svg id="Layer_1" data-name="Layer 1" xmlns="http://www.w3.org/2000/svg" viewBox="0 0 1000 1000"><defs><style>.cls-1{fill:#14275a;}.cls-2{fill:#ee951e;}</style></defs><g id="LOGO"><path class="cls-1" d="M466.32,396.58v-6.7c0-39.07-.13-78.15.15-117.22,0-5.6-1.71-5.81-6.37-5.13-33.09,4.81-64.4,14.57-92.36,33.36-38,25.56-59.11,60.84-58.72,107.22.29,34.77,13.45,64.7,38,89.41,11.24,11.33,22.87,22.27,34.24,33.48,18.87,18.6,33.66,39.78,41.22,65.53,1.11,3.76,2.8,7.35,4.25,11,.35.86.85,1.65,2.11,4.08.33-7.59.67-13.57.84-19.55a572.15,572.15,0,0,0-2.55-73.7c-.42-4.13-1.74-6.15-5.62-7.66-19.63-7.61-37.47-18.17-52.25-33.37-9.43-9.7-16.9-20.61-19.6-34.2-3.91-19.62,8.31-34.93,28.28-35.2s35.5,8.16,46.79,24.48c13,18.82,18.62,40.4,22.38,62.52,6.92,40.79,6.91,81.88,4.72,123-.09,1.75-1.68,4.54,1.23,5.25,4.13,1,8.5,2.07,12.67.73,1.41-.45.58-3.11.58-4.74q.06-58.62,0-117.22v-6.13c7,3.87,13.6,6.9,20.88,8.08,3.52.58,2.17,3.51,2.18,5.46.08,29.31.05,58.61.06,87.92q0,23.1,0,46.21c0,2.18.54,4.51-3.13,4.52-16.16.06-32.28.2-48.08-4.19-17.38-4.84-29.43-15.3-35.13-32.56-5.86-17.73-12.72-34.86-25-49.34-11.6-13.63-24.63-25.82-37.66-38-23.8-22.25-41.91-47.93-50-80-16.26-64.79,9.21-127,67.81-164.61,33.56-21.52,70.78-32.22,110.2-36,5.6-.53,11.25-.62,16.86-1.12,3-.28,4.2.47,4.19,3.84q-.15,69,0,138.07c0,3-.82,4.25-3.93,4.76C478.91,390,472.87,393,466.32,396.58Zm-44.68,89.05c-4-16-8.32-30.47-18-42.63-6.51-8.17-15-12.11-25.49-11.84-4.82.13-6.69,2.51-5.86,7.28a33,33,0,0,0,6.21,13.7C389.32,467.13,404.12,477,421.64,485.63Z"/><path class="cls-1" d="M704,436.93C704.4,543.92,631.39,630,534.53,646c-8.91,1.47-17.91,1.94-26.87,2.82-4.83.47-6.9-.66-6.29-5.91.49-4.26-1.34-9.5.57-12.69s7.58-1.22,11.57-1.55c73.86-6,137-56,159.29-126.26,34.36-108.29-37.29-220.87-150-235.65A119,119,0,0,0,506,265.42c-4.23.05-5-1.58-4.75-5.25a91.48,91.48,0,0,0,0-12.39c-.25-3.5.85-4.41,4.4-4.29,35.81,1.19,69.46,10.23,99.8,29.34C669,312.9,701.37,371.07,704,436.93Z"/><path class="cls-2" d="M451.47,446a46.82,46.82,0,0,1,93.64.58c-.09,26.17-21.06,46.53-47.76,46.39C471.64,492.78,451.38,472,451.47,446Z"/><path class="cls-1" d="M618.65,447.19a119.2,119.2,0,0,1-112.07,119c-4.35.28-5.89-.77-5.24-5a16.54,16.54,0,0,0,0-4.5c-.42-3.27.55-4.4,4.17-4.64,54.22-3.59,95-44.63,99-99.47,3.71-50.35-32.59-97.39-83.77-108.39a94.29,94.29,0,0,0-15.07-1.84c-3.3-.16-4.5-1-4.5-4.54,0-10.48-.19-10.48,11.69-9.11A119,119,0,0,1,618.65,447.19Z"/><path class="cls-1" d="M641.21,446.07c-.05,76.41-58.53,138.18-133.76,142.48-2.14.12-6.22,2.55-6-2.79.13-3.63-1.88-7.61,5.22-8.22,56-4.83,95.43-33.32,115.48-85.75,31.19-81.51-28.74-171.38-115.92-175-6.53-.28-4.49-3.95-5-7.28-.68-4.64,2.23-4.11,5.12-4,66.32,2,125.58,56.24,133.62,122.32A133.52,133.52,0,0,1,641.21,446.07Z"/><path class="cls-1" d="M596.11,439.84c0,58.05-39.32,100.26-89.48,103.78-4.22.3-5.81-.49-5.34-4.91.4-3.7-1.13-8.27.55-11,1.85-3,6.91-1.34,10.54-2,38.71-7.05,66.36-39.25,66.69-78,.32-38.14-26.55-71-64.44-78.68-.91-.19-1.84-.35-2.76-.52-3.43-.62-9,.56-9.9-1.87-1.61-4.29-.9-9.58-.57-14.42.23-3.37,3.33-1.69,4.94-1.56,17.37,1.34,33.49,6.59,47.74,16.7C581.55,386.86,595.38,413.66,596.11,439.84Z"/><path class="cls-1" d="M663.74,447.15c0,88.27-69.22,160.31-157.72,164.15-2.46.11-4.63.78-4.8-3.27-.19-4.41,1.87-4.62,5.31-4.85,59.3-3.92,103.69-32.07,131.6-84.23,50.13-93.68-9.59-210.42-115-226.26-5.74-.86-11.55-1.42-17.35-1.73-3.05-.17-4.62-.44-4.62-4.26,0-4.18,2.18-4,4.93-3.83,30.69,1.5,58.95,10.48,84.55,27.52A163.9,163.9,0,0,1,663.74,447.15Z"/><path class="cls-1" d="M496.77,687.52q-27.88,0-55.78,0c-9.68,0-16.1-5.61-16.27-14.07-.17-8.67,6.34-14.48,16.4-14.48q55.23,0,110.44,0c10.3,0,16.51,5.47,16.47,14.31s-6.36,14.23-16.6,14.24Q524.1,687.54,496.77,687.52Z"/><path class="cls-1" d="M497.47,693.32c17.08,0,34.17,0,51.26,0,9.65,0,16.06,5.66,16.22,14.15s-6.16,14.57-15.81,14.6q-51.82.18-103.64,0c-9.64,0-15.81-6.16-15.63-14.75s6.58-14,16.34-14Q471.85,693.28,497.47,693.32Z"/><path class="cls-1" d="M512.56,144c-.07,17.8-4.19,34.89-9.41,51.77a16.83,16.83,0,0,1-2.3,4.48c-4,5.74-8.48,5.91-12.58.29a33.85,33.85,0,0,1-4.53-8.36,227.88,227.88,0,0,1-12.84-60.85,49.72,49.72,0,0,1,1.79-16.71c1.95-7.1,5.62-13,13.41-14.3,8.12-1.36,14.15,2.77,18.56,9.2,5.12,7.46,7.13,16,7.85,24.92C512.77,137.64,512.56,140.85,512.56,144Z"/><path class="cls-1" d="M573.55,447.08A74.07,74.07,0,0,1,506.28,521c-3.92.35-5.5-.27-5.08-4.47.36-3.54-1-7.81.51-10.51,1.65-2.86,6.44-1.68,9.82-2.45,27-6.14,46-30.74,45.32-58.94-.63-28.36-20.92-51.72-49.58-56.33-5-.81-6.32-2.36-6.1-7.17.38-8.71.1-8.72,8.88-7.37C547,379.49,573.51,410,573.55,447.08Z"/><path class="cls-1" d="M310.06,165.28c9,.6,17.74,6.1,23.7,14.9a138.45,138.45,0,0,1,22.6,55.76,22.81,22.81,0,0,1,.12,6.7c-.83,5.85-4.17,8.06-9.92,6.76-5.25-1.18-9.66-4.11-13.72-7.42a175.87,175.87,0,0,1-36.68-41.55,33.89,33.89,0,0,1-5.74-16.84C290,172.94,297.28,165.32,310.06,165.28Z"/><path class="cls-1" d="M722.54,344.66c-3.94-.45-8.16-.28-10.5-4.25s-.43-7.7,1.61-11.07c4.45-7.36,10.92-12.81,17.72-17.85,13.14-9.76,27.09-18.1,42.58-23.62,9.06-3.23,17.75-2.61,25.66,3.14s8.42,13.83,1.83,20.74a25.09,25.09,0,0,1-4.68,4c-21.58,13.57-44.46,24-69.79,28.32C725.49,344.33,724,344.47,722.54,344.66Z"/><path class="cls-1" d="M252.7,475.14c6.29.51,11.4-.62,13.69,4s.06,9.11-2.55,13.18a2.94,2.94,0,0,1-.31.47c-20.88,21.88-45.91,35-76.59,36a17.46,17.46,0,0,1-8.12-2c-9.67-4.66-11.35-13.72-3.9-21.38a28.09,28.09,0,0,1,4.71-4C202.5,486.39,227.89,478.72,252.7,475.14Z"/><path class="cls-1" d="M244,368.56c-23.23-2.78-45.73-8.19-66.44-19.48-6.66-3.63-12.24-8.72-15.27-16-3.34-8-.16-13.75,8.47-15.07a32.77,32.77,0,0,1,12.32.39,195.44,195.44,0,0,1,60.21,24.21,42.09,42.09,0,0,1,12.21,10.69c2.36,3.22,4.63,6.78,2.71,10.87-1.84,3.92-5.91,4.15-9.7,4.37C247,368.64,245.45,368.56,244,368.56Z"/><path class="cls-1" d="M614.6,234.76a31.72,31.72,0,0,1,3.45-12.38c7.4-15.17,17.53-28.37,29.4-40.27a27.22,27.22,0,0,1,10.85-6.87c10.25-3.31,19.25,3.48,18.72,14.25a27.41,27.41,0,0,1-4.79,14.24c-9.65,14-21.1,26.37-35.35,35.88-3.6,2.4-7.49,4.37-11.91,4.76C618.56,244.94,614.53,241.16,614.6,234.76Z"/><path class="cls-1" d="M781.56,513.87c-16.08-1.58-34.57-9.32-52.08-19.79a14.69,14.69,0,0,1-6.06-7.2c-2.73-6.82.75-12.82,8.5-14.69s15.26-.68,22.83.84a137.52,137.52,0,0,1,36.85,13.2c.67.35,1.32.71,2,1.08,8.64,4.93,12.64,11.54,10.77,17.78C802.52,511.11,796.07,514.26,781.56,513.87Z"/><path class="cls-1" d="M285.83,659.24c-.11-7.33,2.59-12.54,7-16.5,13-11.64,26.27-23,39.51-34.37a14.54,14.54,0,0,1,4.94-2.6c3.28-1.08,6.75-1.58,9.54,1.11s2.27,6.35.82,9.44a72.21,72.21,0,0,1-6.94,12.2c-8.7,11.77-17.69,23.32-26.63,34.91a24.81,24.81,0,0,1-8.06,6.94C295.73,675.79,285.77,669.76,285.83,659.24Z"/><path class="cls-1" d="M708.16,648.42c.06,8.49-5.61,12.77-13.73,10.26a18.74,18.74,0,0,1-5.12-2.22c-13.73-9.6-24.71-21.65-32.24-36.7a13.27,13.27,0,0,1-1.19-3.74c-.55-3.54-1.14-7.27,1.92-10s6.85-1.73,10-.12a96.91,96.91,0,0,1,37.51,32.93A17.9,17.9,0,0,1,708.16,648.42Z"/><path class="cls-1" d="M203.62,745.65v71.67c0,14,7.62,21.81,21.19,21.81h19.37v13.11H227.25c-25.31,0-37.82-12.2-37.82-37.21V745.65Z"/><path class="cls-1" d="M266.75,745.65v71.67c0,14,7.62,21.81,21.19,21.81h19.37v13.11H290.38c-25.31,0-37.81-12.2-37.81-37.21V745.65Z"/><path class="cls-1" d="M353.82,838.06h36.45c11.74,0,17.69-4.73,17.69-13.42,0-7.78-5.34-12-16.47-17.69l-17.84-9.15c-13-6.56-19.37-15.1-19.37-26.38,0-15.4,11.74-25.77,32.63-25.77h30.81v14H382.19c-8.24,0-13.27,4.57-13.27,11.28,0,7.93,6.4,11.44,18.3,17.54l15.55,7.93c13.57,6.86,20,15.55,20,27.45,0,17.53-12.2,28.36-35.23,28.36h-33.7Z"/><path class="cls-1" d="M449.44,759.83a53.21,53.21,0,0,1,76.24.15,55.79,55.79,0,0,1,0,77.93,53.21,53.21,0,0,1-76.24.15,55.76,55.76,0,0,1,0-78.23Zm10.21,68.62a38.62,38.62,0,0,0,27.91,12.2,37.68,37.68,0,0,0,27.75-12.2,43.31,43.31,0,0,0,0-59.32,37.68,37.68,0,0,0-27.75-12.2A38.47,38.47,0,0,0,459.65,769a43.53,43.53,0,0,0,0,59.47Z"/><path class="cls-1" d="M569.3,745.65v71.67c0,14,7.62,21.81,21.2,21.81h19.36v13.11H592.94c-25.32,0-37.82-12.2-37.82-37.21V745.65Z"/><path class="cls-1" d="M678.18,803.29H636.7V789.87h41.48V785.6c0-18.91-8.39-28.67-22.88-28.67s-22.87,9.76-22.87,28.67v66.64H618.25v-67c0-26.07,15.25-41.47,37-41.47s37.06,15.4,37.06,41.47v67H678.18Z"/><path class="cls-1" d="M709.75,783.92c0-25.62,13.72-40.1,34.76-40.1,19.68,0,33.71,13.57,33.71,30,0,10.06-4.88,18.14-14.34,23.33,11.29,3,15.86,11.28,15.86,26.08v29h-14V828.6c0-16.47-3.81-23-20.13-23H729.42v-13h12.5c14.18,0,21.81-6.87,21.81-17.85,0-10.21-7.63-17.84-19.37-17.84-12.2,0-20.59,8.69-20.59,23.79v71.52h-14Z"/></g></svg>